<?xml version="1.0" standalone="no"?>
<!DOCTYPE svg PUBLIC "-//W3C//DTD SVG 20010904//EN"
 "http://www.w3.org/TR/2001/REC-SVG-20010904/DTD/svg10.dtd">
<svg version="1.0" xmlns="http://www.w3.org/2000/svg"
 width="240.000000pt" height="240.000000pt" viewBox="0 0 240.000000 240.000000"
 preserveAspectRatio="xMidYMid meet">

<g transform="translate(0.000000,240.000000) scale(0.100000,-0.100000)"
fill="#000000" stroke="none">
<path d="M964 1916 c-3 -8 -4 -23 -2 -33 3 -17 22 -18 270 -21 l267 -2 3 -33
c3 -32 3 -32 66 -35 l62 -3 0 36 0 35 -64 0 -65 0 -3 33 -3 32 -263 3 c-222 2
-263 0 -268 -12z"/>
<path d="M830 1825 c0 -33 -2 -35 -35 -35 -32 0 -35 -2 -35 -30 0 -28 3 -30
35 -30 32 0 35 2 35 30 l0 30 65 0 65 0 0 35 0 35 -65 0 -65 0 0 -35z"/>
<path d="M1640 1760 c0 -27 3 -30 30 -30 27 0 30 3 30 30 0 27 -3 30 -30 30
-27 0 -30 -3 -30 -30z"/>
<path d="M700 1690 c0 -27 3 -30 30 -30 27 0 30 3 30 30 0 27 -3 30 -30 30
-27 0 -30 -3 -30 -30z"/>
<path d="M1710 1690 c0 -27 3 -30 30 -30 27 0 30 3 30 30 0 27 -3 30 -30 30
-27 0 -30 -3 -30 -30z"/>
<path d="M630 1590 l0 -70 30 0 30 0 0 70 0 70 -30 0 -30 0 0 -70z"/>
<path d="M1774 1647 c-3 -8 -4 -39 -2 -68 3 -53 4 -54 33 -54 l30 0 0 65 c0
64 -1 65 -28 68 -17 2 -29 -2 -33 -11z"/>
<path d="M960 1525 l0 -65 70 0 70 0 0 65 0 65 -70 0 -70 0 0 -65z"/>
<path d="M1300 1525 l0 -65 65 0 65 0 0 65 0 65 -65 0 -65 0 0 -65z"/>
<path d="M560 1385 l0 -135 -35 0 c-32 0 -35 -2 -35 -30 0 -28 3 -30 35 -30
32 0 35 2 35 30 0 27 3 30 30 30 l30 0 0 135 0 135 -30 0 -30 0 0 -135z"/>
<path d="M1840 1385 l0 -135 -35 0 c-32 0 -35 -2 -35 -30 0 -28 3 -30 35 -30
33 0 35 -2 35 -35 0 -32 2 -35 30 -35 l30 0 0 200 0 200 -30 0 -30 0 0 -135z"/>
<path d="M830 1425 c0 -32 2 -35 30 -35 28 0 30 3 30 35 0 32 -2 35 -30 35
-28 0 -30 -3 -30 -35z"/>
<path d="M1500 1425 l0 -35 -300 0 -300 0 0 -35 c0 -32 2 -35 29 -35 26 0 30
-4 33 -32 l3 -33 233 -3 232 -2 0 35 c0 33 2 35 35 35 33 0 35 2 35 35 0 33 2
35 35 35 33 0 35 2 35 35 0 33 -2 35 -35 35 -33 0 -35 -2 -35 -35z"/>
<path d="M430 1121 l0 -71 -35 0 c-33 0 -35 -2 -35 -35 0 -33 -2 -35 -35 -35
-33 0 -35 -2 -35 -35 0 -33 -2 -35 -35 -35 l-36 0 3 -97 3 -98 33 -3 c28 -3
32 -7 32 -33 0 -27 3 -29 35 -29 33 0 35 -2 35 -35 l0 -35 235 0 235 0 0 -35
0 -35 65 0 65 0 0 35 0 35 -65 0 -65 0 0 29 c0 26 -4 30 -32 33 l-33 3 -3 68
-3 67 -34 0 -35 0 0 68 0 67 -32 0 -33 0 -3 103 -3 102 -29 0 c-28 0 -30 -3
-30 -35 0 -33 -2 -35 -35 -35 l-34 0 -3 68 c-3 65 -4 67 -30 70 l-28 3 0 -70z
m130 -176 c0 -32 2 -35 30 -35 l30 0 0 -65 0 -65 35 0 35 0 0 -65 0 -65 -164
0 -165 0 -3 33 c-3 28 -7 32 -35 35 l-33 3 0 95 0 94 35 0 c33 0 35 2 35 35
l0 35 100 0 100 0 0 -35z"/>
<path d="M1908 1018 l-3 -103 -67 -3 -68 -3 0 35 c0 32 3 35 33 38 28 3 32 7
35 36 l3 32 -170 0 -171 0 0 -35 c0 -33 -2 -35 -35 -35 -32 0 -35 -2 -35 -30
0 -27 -3 -30 -30 -30 l-30 0 0 -105 0 -105 29 0 c25 0 30 -4 33 -27 2 -23 8
-29 36 -31 29 -3 32 -6 32 -38 l0 -34 235 0 235 0 0 -35 0 -35 -502 -2 -503
-3 -3 -28 -3 -27 505 0 506 0 0 30 c0 28 3 30 35 30 33 0 35 2 35 35 0 33 2
35 35 35 33 0 35 2 35 35 0 32 2 35 30 35 27 0 30 3 30 30 0 28 3 30 35 30
l35 0 0 99 0 100 -32 3 c-29 3 -33 7 -36 36 -3 28 -7 32 -33 32 -27 0 -29 3
-29 35 l0 35 -70 0 -70 0 0 35 c0 32 -2 35 -30 35 l-29 0 -3 -102z m-208 -73
c0 -33 2 -35 35 -35 33 0 35 -2 35 -35 l0 -36 68 3 67 3 3 32 c3 28 7 32 35
35 28 3 32 7 35 36 l3 32 59 0 59 0 3 -32 c3 -29 7 -33 36 -36 l32 -3 0 -94 0
-94 -32 -3 c-29 -3 -33 -7 -36 -36 l-3 -32 -297 2 -297 3 -3 33 c-3 28 -7 32
-33 32 l-29 0 0 95 0 95 30 0 c28 0 30 3 30 35 l0 35 100 0 100 0 0 -35z"/>
</g>
</svg>
